<svg xmlns="http://www.w3.org/2000/svg" width="130.853" height="132.75" viewBox="0 0 130.853 132.75">
  <path id="icon-hc-doctor-care-delievery" d="M106.426,64.077c8.306-9.043,13.491-22.191,13.491-32.143C119.916,14.317,104.558,0,85.66,0S51.4,14.317,51.4,31.935c0,9.952,5.184,23.1,13.491,32.143C14.64,79.824,19.908,123.165,22.11,132h127.1C156.708,101.728,136.863,72.366,106.426,64.077ZM85.66,4.261c12.013,0,22.354,6.678,27.009,16.266-11.4,7.25-22.967-.935-22.967-.935a25.546,25.546,0,0,0-25.866,1.013l-6.913,4.521C60.184,13.174,71.807,4.261,85.66,4.261ZM55.976,31.935c0-.338.028-.676.056-1.013l10.424-6.834a20.686,20.686,0,0,1,20.933-.831s12.738,9.094,26.87,1.377a26.182,26.182,0,0,1,1.087,7.276c0,15.123-13.3,38.327-29.685,38.327S55.976,47.057,55.976,31.935Zm89.444,95.8H25.928c-3.456-19.982,5.324-39.184,21.49-50.747A57.491,57.491,0,0,0,53.1,94.167c-7.052,4.131-10.369,12.42-7.5,20.034l3.791,10.03L58.01,121.4l-1.505-4.028-4.32,1.4L49.9,112.746c-2.509-6.652,1.254-13.954,8.39-16.292,7.108-2.339,14.968,1.169,17.476,7.821l2.258,6.028-4.32,1.4,1.505,4.028,8.613-2.832L80.03,102.846C76.741,94.115,66.567,89.464,57.2,92.3a52.965,52.965,0,0,1-5.6-18.111,60.007,60.007,0,0,1,16.919-6.7c4.989,4.235,10.787,6.938,17.114,6.938s12.125-2.7,17.114-6.938a58.764,58.764,0,0,1,19.427,8.289,53.122,53.122,0,0,1-6.69,16.032,9.445,9.445,0,0,0-2.453-.364c-5.045,0-9.142,3.82-9.142,8.523s4.1,8.523,9.142,8.523,9.142-3.82,9.142-8.523a8.17,8.17,0,0,0-2.732-6.054,57.967,57.967,0,0,0,6.69-15.279C140.876,90.451,148.681,108.77,145.42,127.739ZM117.63,100.065a4.582,4.582,0,1,1-4.571-4.261A4.444,4.444,0,0,1,117.63,100.065Z" transform="translate(-20.424 0.375)" fill="#a53c0f" stroke="#fff8ed" stroke-width="0.75"/>
</svg>
